<svg width="813" height="261" viewBox="0 0 813 261" fill="none" xmlns="http://www.w3.org/2000/svg">
<path d="M436.664 170.16L1.18066 193.017L6.64449 237.859C8.31182 251.543 20.2533 261.624 34.0229 260.971L227.343 251.802L339.751 244.686L410.627 239.724C424.061 238.783 434.619 227.854 435.096 214.395L436.664 170.16Z" fill="#AC0A0A"/>
<path d="M423.817 36.8389C421.628 15.1481 402.828 -1.02477 381.054 0.0506495L38.9295 16.9478C17.0235 18.0298 -0.140528 36.1793 0.000867316 58.1115L0.818048 184.867C0.9687 208.235 20.6125 226.739 43.948 225.494L227.343 215.711L339.751 208.595L398.082 204.903C421.251 203.436 438.568 183.022 436.237 159.924L423.817 36.8389Z" fill="#F11F2C"/>
<path fill-rule="evenodd" clip-rule="evenodd" d="M350.261 54.5044L345.06 61.6699L357.58 70.7579L350.568 81.7465L340.786 74.6465L331.552 87.3676C328.787 86.5096 325.852 86.1159 322.745 86.1741C315.238 86.3147 308.652 89.0578 303.516 94.568C298.202 99.907 295.704 106.416 295.845 113.923C295.985 121.43 297.671 127.511 303.181 132.647C308.52 137.961 316.241 139.913 323.749 139.772C331.256 139.631 339.788 138.249 345.098 132.736L345.612 132.202L369.708 159.869L365.939 163.782C351.671 175.925 342.628 178.016 324.471 178.356C306.663 178.689 291.182 172.692 278.199 160.186C265.215 147.679 258.642 132.434 258.309 114.626C257.972 96.6435 263.97 81.1622 276.476 68.1787C284.635 59.7078 293.961 53.9658 304.403 50.905L322.873 64.3116L333.798 49.2614C339.907 50.3733 345.475 52.3169 350.261 54.5044ZM149.923 167.827C135.655 179.97 126.612 182.061 108.455 182.401C90.6473 182.734 75.166 176.737 62.1825 164.231C49.1991 151.725 42.6263 136.479 42.2928 118.671C41.956 100.689 47.9534 85.2076 60.4595 72.2242C72.9656 59.2407 88.2115 52.6679 106.019 52.3344C124.351 51.9911 139.707 60.6105 147.144 66.06L126.614 98.2302L126.258 97.8876C120.745 92.5768 114.236 90.079 106.729 90.2195C99.2216 90.3601 92.6363 93.1032 87.5001 98.6134C82.186 103.952 79.6882 110.461 79.8288 117.968C79.9694 125.475 81.6551 131.557 87.1653 136.693C92.5043 142.007 100.225 143.958 107.733 143.817C115.24 143.677 123.772 142.295 129.082 136.781L129.596 136.247L153.692 163.914L149.923 167.827ZM246.787 87.422L246.159 53.9015L158.517 55.5428L160.786 176.705L198.322 176.003L197.505 132.356L247.087 131.427L246.518 101.049L196.936 101.978L196.681 88.3603L246.787 87.422Z" fill="white"/>
<path d="M356.354 55.7482L365.736 42.8232L378.661 52.205L369.279 65.13L356.354 55.7482Z" fill="white"/>
<path d="M305.857 42.2567L315.239 29.3317L328.164 38.7136L318.782 51.6386L305.857 42.2567Z" fill="white"/>
<path d="M337.921 99.4108L347.303 86.4858L360.228 95.8676L350.846 108.793L337.921 99.4108Z" fill="white"/>
<path d="M364.155 86.854L377.055 69.0831L394.825 81.9825L381.926 99.7533L364.155 86.854Z" fill="white"/>
<path d="M524.933 64.4283C518.142 69.9919 513.888 70.8919 505.379 70.8919C497.033 70.8919 489.834 67.9465 483.861 61.9738C477.888 56.0012 474.943 48.8013 474.943 40.456C474.943 32.0288 477.888 24.8289 483.861 18.8563C489.834 12.8836 497.033 9.93823 505.379 9.93823C513.97 9.93823 521.088 14.1109 524.524 16.729L514.624 31.6197C514.542 31.5379 514.542 31.5379 514.46 31.4561C511.924 28.9198 508.897 27.6925 505.379 27.6925C501.861 27.6925 498.752 28.9198 496.297 31.4561C493.761 33.9106 492.534 36.9378 492.534 40.456C492.534 43.9741 493.27 46.8377 495.806 49.2922C498.261 51.8285 501.861 52.8103 505.379 52.8103C508.897 52.8103 512.906 52.2376 515.442 49.7013C515.524 49.6195 515.688 49.4558 515.688 49.4558L526.733 62.6284L524.933 64.4283Z" fill="white"/>
<path d="M589.916 68.601L576.989 51.4194C580.589 47.0831 582.471 41.9287 582.471 36.0378C582.471 29.3289 580.016 23.438 575.271 18.6927C570.526 13.9473 564.635 11.9018 557.926 11.9018H529.781V68.6828H547.535V60.5829H557.926C559.153 60.5829 560.38 60.4193 561.526 60.3375L575.762 79.2372L589.916 68.601ZM547.535 42.8287V29.3289H557.926C561.689 29.3289 564.635 32.3561 564.635 36.0378C564.635 39.7196 561.689 42.8287 557.926 42.8287H547.535Z" fill="white"/>
<path d="M646.524 11.9018L626.233 47.0013V68.6828H608.561V47.0013L588.27 11.9018H608.643L617.397 26.7925L626.151 11.9018H646.524Z" fill="white"/>
<path d="M693.444 53.383C688.699 58.1284 682.808 60.5011 676.099 60.5011H665.79V68.6828H648.036V11.9018H676.099C682.808 11.9018 688.699 14.1109 693.444 18.8563C698.189 23.6017 700.562 29.4107 700.562 36.1197C700.562 42.9105 698.189 48.6377 693.444 53.383ZM676.099 29.4107H665.79V42.9105H676.099C679.862 42.9105 682.808 39.8014 682.808 36.1197C682.808 32.3561 679.862 29.4107 676.099 29.4107Z" fill="white"/>
<path d="M750.479 29.3289H735.67V68.6828H718.079V29.3289H703.27V11.9018H750.479V29.3289Z" fill="white"/>
<path d="M803.405 61.9738C797.433 67.8646 790.315 70.8919 781.887 70.8919C773.46 70.8919 766.342 67.8646 760.37 61.9738C754.479 56.0012 751.452 48.8013 751.452 40.456C751.452 32.0288 754.479 24.8289 760.37 18.9381C766.342 12.9655 773.46 9.93823 781.887 9.93823C790.315 9.93823 797.433 12.9655 803.405 18.9381C809.378 24.8289 812.405 32.0288 812.405 40.456C812.405 48.8013 809.378 56.0012 803.405 61.9738ZM790.887 31.4561C788.351 28.9198 785.406 27.6925 781.887 27.6925C778.288 27.6925 775.342 28.9198 772.806 31.4561C770.351 33.9106 769.124 36.9378 769.124 40.456C769.124 43.9741 770.351 47.0013 772.806 49.5376C775.342 51.9921 778.288 53.2194 781.887 53.2194C785.406 53.2194 788.351 51.9921 790.887 49.5376C793.505 47.0013 794.733 43.9741 794.733 40.456C794.733 36.9378 793.505 33.9106 790.887 31.4561Z" fill="white"/>
<path d="M524.933 241.698C518.142 247.262 513.888 248.162 505.379 248.162C497.033 248.162 489.834 245.217 483.861 239.244C477.888 233.271 474.943 226.071 474.943 217.726C474.943 209.299 477.888 202.099 483.861 196.126C489.834 190.154 497.033 187.208 505.379 187.208C513.97 187.208 521.088 191.381 524.524 193.999L514.624 208.89C514.542 208.808 514.542 208.808 514.46 208.726C511.924 206.19 508.897 204.963 505.379 204.963C501.861 204.963 498.752 206.19 496.297 208.726C493.761 211.181 492.534 214.208 492.534 217.726C492.534 221.244 493.27 224.108 495.806 226.562C498.261 229.099 501.861 230.08 505.379 230.08C508.897 230.08 512.906 229.508 515.442 226.971C515.524 226.89 515.688 226.726 515.688 226.726L526.733 239.898L524.933 241.698Z" fill="white"/>
<path d="M565.535 245.953H529.862V189.172H547.453V228.28H565.535V245.953Z" fill="white"/>
<path d="M601.542 189.254V223.78C601.542 227.544 598.515 230.489 594.751 230.489C591.069 230.489 588.042 227.544 588.042 223.78V189.254H570.37V223.78C570.37 230.489 572.742 236.38 577.488 241.044C582.315 245.789 588.042 248.244 594.751 248.244C601.542 248.244 607.351 245.789 612.096 241.044C616.842 236.38 619.214 230.489 619.214 223.78V189.254H601.542Z" fill="white"/>
<path d="M671.064 215.762C669.837 214.535 668.528 214.126 667.71 214.044C669.019 212.899 670.246 210.281 670.246 206.353C670.246 201.69 669.265 197.681 665.992 194.326C662.637 190.972 659.201 189.172 651.674 189.172L625.902 189.254V245.953H656.174C663.456 245.953 667.874 243.907 671.064 240.635C674.337 237.444 676.219 232.862 676.219 228.035C676.219 223.126 674.501 219.199 671.064 215.762ZM651.674 202.263C653.965 202.263 655.765 204.063 655.765 206.353C655.765 207.499 655.274 208.563 654.537 209.299C653.883 209.953 652.738 210.526 651.019 210.526H643.001V202.263H651.674ZM659.119 231.144C658.383 231.88 657.156 232.453 655.11 232.453H643.001V223.78H656.174C658.465 223.78 660.428 225.662 660.428 228.035C660.428 229.262 659.937 230.326 659.119 231.144Z" fill="white"/>
<path d="M507.261 122.709C517.815 124.673 522.724 133.264 521.497 140.873C520.515 147.418 518.551 151.1 513.233 155.109C509.961 157.563 505.706 158.791 501.37 159.363V165.5H494.824V159.691H493.679C486.97 159.445 476.988 157.4 476.988 157.4L480.588 140.545C480.588 140.545 486.152 141.773 492.697 142.264C493.27 142.345 494.006 142.427 494.824 142.509V135.718C494.497 135.636 494.252 135.636 493.924 135.555C488.852 134.818 486.315 134.164 486.315 134.164C478.052 132.364 474.779 124.018 475.679 117.637C476.579 111.091 478.952 106.837 484.27 102.828C487.625 100.291 491.143 99.0642 494.824 98.5733V92.437H501.37V98.3278H501.533C507.751 98.6551 519.124 100.701 519.124 100.701L515.279 117.8C515.279 117.8 505.624 115.673 501.37 115.346V121.646H501.533C504.642 122.218 507.261 122.709 507.261 122.709ZM504.479 140.3C504.724 138.827 504.07 137.436 501.37 136.7V142.673C503.006 142.427 504.233 141.773 504.479 140.3ZM491.879 116.655C490.979 119.191 493.597 119.846 494.824 120.255V114.855C493.352 114.855 492.37 115.346 491.879 116.655Z" fill="#F11F2C"/>
<path d="M568.699 116.246V100.537H527.627V157.318H545.218V136.864H568.454V122.627H545.218V116.246H568.699Z" fill="#F11F2C"/>
<path d="M592.676 157.318H575.004V100.537H592.676V157.318Z" fill="#F11F2C"/>
<path d="M657.874 124.918H628.829V136.127H638.647C638.156 136.864 637.583 137.518 636.929 138.173C634.474 140.627 631.447 141.854 627.929 141.854C624.411 141.854 621.384 140.627 618.847 138.173C616.393 135.636 615.166 132.609 615.166 129.091C615.166 125.573 616.393 122.546 618.847 120.091C621.384 117.555 624.411 116.328 627.929 116.328C631.447 116.328 633.902 117.064 636.356 119.518L649.447 107.573C643.474 101.601 636.356 98.5733 627.929 98.5733C619.584 98.5733 612.384 101.601 606.411 107.573C600.439 113.464 597.493 120.664 597.493 129.091C597.493 137.436 600.439 144.636 606.411 150.609C612.384 156.5 619.584 159.527 627.929 159.527C636.356 159.527 643.474 156.5 649.447 150.609C655.42 144.636 657.874 137.436 657.874 129.091C657.874 128.846 657.874 128.6 657.874 128.355C657.874 127.536 657.874 124.918 657.874 124.918Z" fill="#F11F2C"/>
<path d="M713.873 157.318H696.2V137.682H680.41V157.318H662.655V100.537H680.41V120.009H696.2V100.537H713.873V157.318Z" fill="#F11F2C"/>
<path d="M765.42 117.964H750.611V157.318H733.02V117.964H718.212V100.537H765.42V117.964Z" fill="#F11F2C"/>
</svg>
